<svg id="visual" viewBox="0 0 600 220" width="600" height="220" xmlns="http://www.w3.org/2000/svg" xmlns:xlink="http://www.w3.org/1999/xlink" version="1.1"><rect x="0" y="0" width="600" height="220" fill="#ffffff"></rect><path d="M0 105L16.7 107.2C33.3 109.3 66.7 113.7 100 117.7C133.3 121.7 166.7 125.3 200 127.8C233.3 130.3 266.7 131.7 300 129.2C333.3 126.7 366.7 120.3 400 113C433.3 105.7 466.7 97.3 500 93.7C533.3 90 566.7 91 583.3 91.5L600 92L600 221L583.3 221C566.7 221 533.3 221 500 221C466.7 221 433.3 221 400 221C366.7 221 333.3 221 300 221C266.7 221 233.3 221 200 221C166.7 221 133.3 221 100 221C66.7 221 33.3 221 16.7 221L0 221Z" fill="#7aafff" stroke-linecap="round" stroke-linejoin="miter"></path></svg>