<svg id="visual" viewBox="0 0 450 900" width="450" height="900" preserveAspectRatio="none" xmlns="http://www.w3.org/2000/svg"
    xmlns:xlink="http://www.w3.org/1999/xlink" version="1.1">
    <rect x="0" y="0" width="450" height="900" fill="#ffffff"></rect>
    <path
        d="M0 149L10.7 161.2C21.3 173.3 42.7 197.7 64.2 201.5C85.7 205.3 107.3 188.7 128.8 187.2C150.3 185.7 171.7 199.3 193 195C214.3 190.7 235.7 168.3 257 160.8C278.3 153.3 299.7 160.7 321.2 172C342.7 183.3 364.3 198.7 385.8 199.3C407.3 200 428.7 186 439.3 179L450 172L450 0L439.3 0C428.7 0 407.3 0 385.8 0C364.3 0 342.7 0 321.2 0C299.7 0 278.3 0 257 0C235.7 0 214.3 0 193 0C171.7 0 150.3 0 128.8 0C107.3 0 85.7 0 64.2 0C42.7 0 21.3 0 10.7 0L0 0Z"
        fill="#e5f3ff"></path>
    <path
        d="M0 155L10.7 157.8C21.3 160.7 42.7 166.3 64.2 165.7C85.7 165 107.3 158 128.8 159.3C150.3 160.7 171.7 170.3 193 165C214.3 159.7 235.7 139.3 257 138.5C278.3 137.7 299.7 156.3 321.2 155.5C342.7 154.7 364.3 134.3 385.8 128.5C407.3 122.7 428.7 131.3 439.3 135.7L450 140L450 0L439.3 0C428.7 0 407.3 0 385.8 0C364.3 0 342.7 0 321.2 0C299.7 0 278.3 0 257 0C235.7 0 214.3 0 193 0C171.7 0 150.3 0 128.8 0C107.3 0 85.7 0 64.2 0C42.7 0 21.3 0 10.7 0L0 0Z"
        fill="#b6d9fb"></path>
    <path
        d="M0 104L10.7 99.7C21.3 95.3 42.7 86.7 64.2 85C85.7 83.3 107.3 88.7 128.8 94.2C150.3 99.7 171.7 105.3 193 110.2C214.3 115 235.7 119 257 122.5C278.3 126 299.7 129 321.2 127.7C342.7 126.3 364.3 120.7 385.8 112.7C407.3 104.7 428.7 94.3 439.3 89.2L450 84L450 0L439.3 0C428.7 0 407.3 0 385.8 0C364.3 0 342.7 0 321.2 0C299.7 0 278.3 0 257 0C235.7 0 214.3 0 193 0C171.7 0 150.3 0 128.8 0C107.3 0 85.7 0 64.2 0C42.7 0 21.3 0 10.7 0L0 0Z"
        fill="#8bbdf7"></path>
    <path
        d="M0 98L10.7 95.3C21.3 92.7 42.7 87.3 64.2 81.7C85.7 76 107.3 70 128.8 73.2C150.3 76.3 171.7 88.7 193 86.8C214.3 85 235.7 69 257 62.5C278.3 56 299.7 59 321.2 62.5C342.7 66 364.3 70 385.8 74.7C407.3 79.3 428.7 84.7 439.3 87.3L450 90L450 0L439.3 0C428.7 0 407.3 0 385.8 0C364.3 0 342.7 0 321.2 0C299.7 0 278.3 0 257 0C235.7 0 214.3 0 193 0C171.7 0 150.3 0 128.8 0C107.3 0 85.7 0 64.2 0C42.7 0 21.3 0 10.7 0L0 0Z"
        fill="#62a0f2"></path>
    <path
        d="M0 53L10.7 49.2C21.3 45.3 42.7 37.7 64.2 36C85.7 34.3 107.3 38.7 128.8 38.2C150.3 37.7 171.7 32.3 193 31C214.3 29.7 235.7 32.3 257 35.7C278.3 39 299.7 43 321.2 47.2C342.7 51.3 364.3 55.7 385.8 56.5C407.3 57.3 428.7 54.7 439.3 53.3L450 52L450 0L439.3 0C428.7 0 407.3 0 385.8 0C364.3 0 342.7 0 321.2 0C299.7 0 278.3 0 257 0C235.7 0 214.3 0 193 0C171.7 0 150.3 0 128.8 0C107.3 0 85.7 0 64.2 0C42.7 0 21.3 0 10.7 0L0 0Z"
        fill="#3d82ea"></path>
</svg>