<svg id="visual" viewBox="0 0 450 900" width="450" height="900" preserveAspectRatio="none"
    xmlns="http://www.w3.org/2000/svg" xmlns:xlink="http://www.w3.org/1999/xlink" version="1.1">
    <path
        d="M0 154L18.8 154C37.7 154 75.3 154 112.8 149.5C150.3 145 187.7 136 225.2 146.5C262.7 157 300.3 187 337.8 203.5C375.3 220 412.7 223 431.3 224.5L450 226L450 0L431.3 0C412.7 0 375.3 0 337.8 0C300.3 0 262.7 0 225.2 0C187.7 0 150.3 0 112.8 0C75.3 0 37.7 0 18.8 0L0 0Z"
        fill="#a3a3a3"></path>
    <path
        d="M0 244L18.8 250C37.7 256 75.3 268 112.8 271C150.3 274 187.7 268 225.2 265C262.7 262 300.3 262 337.8 274C375.3 286 412.7 310 431.3 322L450 334L450 224L431.3 222.5C412.7 221 375.3 218 337.8 201.5C300.3 185 262.7 155 225.2 144.5C187.7 134 150.3 143 112.8 147.5C75.3 152 37.7 152 18.8 152L0 152Z"
        fill="#bfbfbf"></path>
    <path
        d="M0 496L18.8 484C37.7 472 75.3 448 112.8 445C150.3 442 187.7 460 225.2 467.5C262.7 475 300.3 472 337.8 478C375.3 484 412.7 499 431.3 506.5L450 514L450 332L431.3 320C412.7 308 375.3 284 337.8 272C300.3 260 262.7 260 225.2 263C187.7 266 150.3 272 112.8 269C75.3 266 37.7 254 18.8 248L0 242Z"
        fill="#d1d1d1"></path>
    <path
        d="M0 604L18.8 587.5C37.7 571 75.3 538 112.8 524.5C150.3 511 187.7 517 225.2 517C262.7 517 300.3 511 337.8 515.5C375.3 520 412.7 535 431.3 542.5L450 550L450 512L431.3 504.5C412.7 497 375.3 482 337.8 476C300.3 470 262.7 473 225.2 465.5C187.7 458 150.3 440 112.8 443C75.3 446 37.7 470 18.8 482L0 494Z"
        fill="#d7d7d7"></path>
    <path
        d="M0 685L18.8 691C37.7 697 75.3 709 112.8 716.5C150.3 724 187.7 727 225.2 728.5C262.7 730 300.3 730 337.8 737.5C375.3 745 412.7 760 431.3 767.5L450 775L450 548L431.3 540.5C412.7 533 375.3 518 337.8 513.5C300.3 509 262.7 515 225.2 515C187.7 515 150.3 509 112.8 522.5C75.3 536 37.7 569 18.8 585.5L0 602Z"
        fill="#d1d1d1"></path>
    <path
        d="M0 784L18.8 787C37.7 790 75.3 796 112.8 799C150.3 802 187.7 802 225.2 799C262.7 796 300.3 790 337.8 793C375.3 796 412.7 808 431.3 814L450 820L450 773L431.3 765.5C412.7 758 375.3 743 337.8 735.5C300.3 728 262.7 728 225.2 726.5C187.7 725 150.3 722 112.8 714.5C75.3 707 37.7 695 18.8 689L0 683Z"
        fill="#bfbfbf"></path>
    <path
        d="M0 901L18.8 901C37.7 901 75.3 901 112.8 901C150.3 901 187.7 901 225.2 901C262.7 901 300.3 901 337.8 901C375.3 901 412.7 901 431.3 901L450 901L450 818L431.3 812C412.7 806 375.3 794 337.8 791C300.3 788 262.7 794 225.2 797C187.7 800 150.3 800 112.8 797C75.3 794 37.7 788 18.8 785L0 782Z"
        fill="#a3a3a3"></path>
</svg>