<svg width="360" height="801" preserveAspectRatio="none" viewBox="0 0 360 801" fill="none"
    xmlns="http://www.w3.org/2000/svg">
    <path
        d="M0 156H15.04C30.16 156 59 171.111 90.24 152C120.24 148 140 142.667 170 152C200 161.333 231 180.333 261 195C291 209.667 320.12 214.667 335 216L360 210V0H345.04C330.16 0 300.24 0 270.24 0C240.24 0 210.16 0 180.16 0C150.16 0 120.24 0 90.24 0C60.24 0 30.16 0 15.04 0H0V156Z"
        fill="#DFDFDF" />
    <path
        d="M0 226.626L15.04 231.318C30.16 236.009 60.24 245.393 90.24 247.738C120.24 250.084 150.16 245.393 180.16 243.047C210.16 240.701 240.24 240.701 270.24 250.084C300.24 259.467 330.16 278.234 345.04 287.617L360 297V210.988L345.04 209.815C330.16 208.642 300.24 206.296 270.24 193.394C240.24 180.492 210.16 157.034 180.16 148.824C150.16 140.614 120.24 147.651 90.24 151.17C60.24 154.689 30.16 154.689 15.04 154.689H0V226.626Z"
        fill="#DFDFDF" />
    <path
        d="M0 440.889L15.04 430.222C30.16 419.556 60.24 398.222 90.24 395.556C120.24 392.889 150.16 408.889 180.16 415.556C210.16 422.222 240.24 419.556 270.24 424.889C300.24 430.222 330.16 443.556 345.04 450.222L360 456.889V295.111L345.04 284.444C330.16 273.778 300.24 252.444 270.24 241.778C240.24 231.111 210.16 231.111 180.16 233.778C150.16 236.444 120.24 241.778 90.24 239.111C60.24 236.444 30.16 225.778 15.04 220.444L0 215.111V440.889Z"
        fill="#DFDFDF" />
    <path
        d="M0 536.889L15.04 522.222C30.16 507.556 60.24 478.222 90.24 466.222C120.24 454.222 150.16 459.556 180.16 459.556C210.16 459.556 240.24 454.222 270.24 458.222C300.24 462.222 330.16 475.556 345.04 482.222L360 488.889V455.111L345.04 448.444C330.16 441.778 300.24 428.444 270.24 423.111C240.24 417.778 210.16 420.444 180.16 413.778C150.16 407.111 120.24 391.111 90.24 393.778C60.24 396.444 30.16 417.778 15.04 428.444L0 439.111V536.889Z"
        fill="#DFDFDF" />
    <path
        d="M0 608.889L15.04 614.222C30.16 619.556 60.24 630.222 90.24 636.889C120.24 643.556 150.16 646.222 180.16 647.556C210.16 648.889 240.24 648.889 270.24 655.556C300.24 662.222 330.16 675.556 345.04 682.222L360 688.889V487.111L345.04 480.444C330.16 473.778 300.24 460.444 270.24 456.444C240.24 452.444 210.16 457.778 180.16 457.778C150.16 457.778 120.24 452.444 90.24 464.444C60.24 476.444 30.16 505.778 15.04 520.444L0 535.111V608.889Z"
        fill="#DFDFDF" />
    <path
        d="M0 696.889L15.04 699.556C30.16 702.222 60.24 707.556 90.24 710.222C120.24 712.889 150.16 712.889 180.16 710.222C210.16 707.556 240.24 702.222 270.24 704.889C300.24 707.556 330.16 718.222 345.04 723.556L360 728.889V687.111L345.04 680.444C330.16 673.778 300.24 660.444 270.24 653.778C240.24 647.111 210.16 647.111 180.16 645.778C150.16 644.444 120.24 641.778 90.24 635.111C60.24 628.444 30.16 617.778 15.04 612.444L0 607.111V696.889Z"
        fill="#DFDFDF" />
    <path
        d="M0 800.889H15.04C30.16 800.889 60.24 800.889 90.24 800.889C120.24 800.889 150.16 800.889 180.16 800.889C210.16 800.889 240.24 800.889 270.24 800.889C300.24 800.889 330.16 800.889 345.04 800.889H360V727.111L345.04 721.778C330.16 716.444 300.24 705.778 270.24 703.111C240.24 700.444 210.16 705.778 180.16 708.444C150.16 711.111 120.24 711.111 90.24 708.444C60.24 705.778 30.16 700.444 15.04 697.778L0 695.111V800.889Z"
        fill="#E8E8E8" />
    <g clip-path="url(#clip0_29_64)">
        <path d="M360 0H0V145H360V0Z" fill="#DFDFDF" />
        <path
            d="M0 114.55L8.52632 108.025C17.0526 101.5 34.1053 88.45 51.3474 84.825C68.4947 81.2 85.9263 87 103.074 93.235C120.316 99.615 137.368 106.285 154.421 105.415C171.474 104.4 188.526 95.7 205.579 89.465C222.632 83.085 239.684 79.315 256.926 78.01C274.074 76.85 291.505 78.3 308.653 80.91C325.895 83.665 342.947 87.435 351.474 89.465L360 91.35V0H351.474C342.947 0 325.895 0 308.653 0C291.505 0 274.074 0 256.926 0C239.684 0 222.632 0 205.579 0C188.526 0 171.474 0 154.421 0C137.368 0 120.316 0 103.074 0C85.9263 0 68.4947 0 51.3474 0C34.1053 0 17.0526 0 8.52632 0H0V114.55Z"
            fill="#D1D1D1" />
        <path
            d="M0 59.45L8.52632 60.9C17.0526 62.35 34.1053 65.25 51.3474 65.25C68.4947 65.25 85.9263 62.35 103.074 63.365C120.316 64.235 137.368 69.165 154.421 69.31C171.474 69.6 188.526 65.25 205.579 65.685C222.632 66.265 239.684 71.485 256.926 73.515C274.074 75.4 291.505 73.95 308.653 73.95C325.895 73.95 342.947 75.4 351.474 76.125L360 76.85V0H351.474C342.947 0 325.895 0 308.653 0C291.505 0 274.074 0 256.926 0C239.684 0 222.632 0 205.579 0C188.526 0 171.474 0 154.421 0C137.368 0 120.316 0 103.074 0C85.9263 0 68.4947 0 51.3474 0C34.1053 0 17.0526 0 8.52632 0H0V59.45Z"
            fill="#C7C7C7" />
        <path
            d="M0 75.4L8.52632 72.21C17.0526 69.165 34.1053 62.785 51.3474 60.61C68.4947 58.435 85.9263 60.465 103.074 61.915C120.316 63.365 137.368 64.235 154.421 63.075C171.474 61.915 188.526 58.435 205.579 56.55C222.632 54.665 239.684 54.085 256.926 57.565C274.074 60.9 291.505 68.15 308.653 67.135C325.895 66.265 342.947 56.985 351.474 52.49L360 47.85V0H351.474C342.947 0 325.895 0 308.653 0C291.505 0 274.074 0 256.926 0C239.684 0 222.632 0 205.579 0C188.526 0 171.474 0 154.421 0C137.368 0 120.316 0 103.074 0C85.9263 0 68.4947 0 51.3474 0C34.1053 0 17.0526 0 8.52632 0H0V75.4Z"
            fill="#BDBDBD" />
        <path
            d="M0 43.5L8.52632 42.775C17.0526 42.05 34.1053 40.6 51.3474 40.89C68.4947 41.035 85.9263 43.065 103.074 43.79C120.316 44.515 137.368 43.935 154.421 43.935C171.474 43.935 188.526 44.515 205.579 43.5C222.632 42.485 239.684 40.165 256.926 37.99C274.074 35.815 291.505 33.785 308.653 33.64C325.895 33.35 342.947 34.8 351.474 35.525L360 36.25V0H351.474C342.947 0 325.895 0 308.653 0C291.505 0 274.074 0 256.926 0C239.684 0 222.632 0 205.579 0C188.526 0 171.474 0 154.421 0C137.368 0 120.316 0 103.074 0C85.9263 0 68.4947 0 51.3474 0C34.1053 0 17.0526 0 8.52632 0H0V43.5Z"
            fill="#ACACAC" />
        <path
            d="M0 30.45L8.52632 29.29C17.0526 27.985 34.1053 25.665 51.3474 22.91C68.4947 20.3 85.9263 17.4 103.074 15.95C120.316 14.5 137.368 14.5 154.421 15.515C171.474 16.385 188.526 18.415 205.579 17.835C222.632 17.4 239.684 14.5 256.926 15.66C274.074 16.965 291.505 22.185 308.653 24.94C325.895 27.55 342.947 27.55 351.474 27.55H360V0H351.474C342.947 0 325.895 0 308.653 0C291.505 0 274.074 0 256.926 0C239.684 0 222.632 0 205.579 0C188.526 0 171.474 0 154.421 0C137.368 0 120.316 0 103.074 0C85.9263 0 68.4947 0 51.3474 0C34.1053 0 17.0526 0 8.52632 0H0V30.45Z"
            fill="#9C9C9C" />
    </g>
    <defs>
        <clipPath id="clip0_29_64">
            <rect width="360" height="145" fill="white" />
        </clipPath>
    </defs>
</svg>