<svg id="visual" viewBox="0 0 380 200" width="380" height="200" preserveAspectRatio="none"
    xmlns="http://www.w3.org/2000/svg" xmlns:xlink="http://www.w3.org/1999/xlink" version="1.1">
    <rect x="0" y="0" width="380" height="200" fill="#ffffff"></rect>
    <path
        d="M0 170L8 169.3C16 168.7 32 167.3 47.8 163C63.7 158.7 79.3 151.3 95.2 153C111 154.7 127 165.3 142.8 168.7C158.7 172 174.3 168 190.2 165.3C206 162.7 222 161.3 237.8 158.8C253.7 156.3 269.3 152.7 285.2 155.3C301 158 317 167 332.8 164.8C348.7 162.7 364.3 149.3 372.2 142.7L380 136L380 0L372.2 0C364.3 0 348.7 0 332.8 0C317 0 301 0 285.2 0C269.3 0 253.7 0 237.8 0C222 0 206 0 190.2 0C174.3 0 158.7 0 142.8 0C127 0 111 0 95.2 0C79.3 0 63.7 0 47.8 0C32 0 16 0 8 0L0 0Z"
        fill="#ffffff"></path>
    <path
        d="M0 166L8 159.2C16 152.3 32 138.7 47.8 135.3C63.7 132 79.3 139 95.2 144.7C111 150.3 127 154.7 142.8 158.3C158.7 162 174.3 165 190.2 162C206 159 222 150 237.8 146.5C253.7 143 269.3 145 285.2 148C301 151 317 155 332.8 150.8C348.7 146.7 364.3 134.3 372.2 128.2L380 122L380 0L372.2 0C364.3 0 348.7 0 332.8 0C317 0 301 0 285.2 0C269.3 0 253.7 0 237.8 0C222 0 206 0 190.2 0C174.3 0 158.7 0 142.8 0C127 0 111 0 95.2 0C79.3 0 63.7 0 47.8 0C32 0 16 0 8 0L0 0Z"
        fill="#f2f2f2"></path>
    <path
        d="M0 139L8 134.3C16 129.7 32 120.3 47.8 119C63.7 117.7 79.3 124.3 95.2 128.7C111 133 127 135 142.8 136.7C158.7 138.3 174.3 139.7 190.2 140.8C206 142 222 143 237.8 140C253.7 137 269.3 130 285.2 128C301 126 317 129 332.8 128.3C348.7 127.7 364.3 123.3 372.2 121.2L380 119L380 0L372.2 0C364.3 0 348.7 0 332.8 0C317 0 301 0 285.2 0C269.3 0 253.7 0 237.8 0C222 0 206 0 190.2 0C174.3 0 158.7 0 142.8 0C127 0 111 0 95.2 0C79.3 0 63.7 0 47.8 0C32 0 16 0 8 0L0 0Z"
        fill="#f3f3f3"></path>
    <path
        d="M0 126L8 123C16 120 32 114 47.8 111.5C63.7 109 79.3 110 95.2 115C111 120 127 129 142.8 130.5C158.7 132 174.3 126 190.2 125.7C206 125.3 222 130.7 237.8 129C253.7 127.3 269.3 118.7 285.2 114.5C301 110.3 317 110.7 332.8 111.7C348.7 112.7 364.3 114.3 372.2 115.2L380 116L380 0L372.2 0C364.3 0 348.7 0 332.8 0C317 0 301 0 285.2 0C269.3 0 253.7 0 237.8 0C222 0 206 0 190.2 0C174.3 0 158.7 0 142.8 0C127 0 111 0 95.2 0C79.3 0 63.7 0 47.8 0C32 0 16 0 8 0L0 0Z"
        fill="#f4f4f4"></path>
    <path
        d="M0 115L8 111.8C16 108.7 32 102.3 47.8 101.2C63.7 100 79.3 104 95.2 104.2C111 104.3 127 100.7 142.8 100.7C158.7 100.7 174.3 104.3 190.2 109C206 113.7 222 119.3 237.8 116.2C253.7 113 269.3 101 285.2 95.5C301 90 317 91 332.8 91.2C348.7 91.3 364.3 90.7 372.2 90.3L380 90L380 0L372.2 0C364.3 0 348.7 0 332.8 0C317 0 301 0 285.2 0C269.3 0 253.7 0 237.8 0C222 0 206 0 190.2 0C174.3 0 158.7 0 142.8 0C127 0 111 0 95.2 0C79.3 0 63.7 0 47.8 0C32 0 16 0 8 0L0 0Z"
        fill="#dbdbdb"></path>
    <path
        d="M0 99L8 97.8C16 96.7 32 94.3 47.8 92.2C63.7 90 79.3 88 95.2 86.5C111 85 127 84 142.8 84.3C158.7 84.7 174.3 86.3 190.2 88.2C206 90 222 92 237.8 92.5C253.7 93 269.3 92 285.2 89C301 86 317 81 332.8 84.2C348.7 87.3 364.3 98.7 372.2 104.3L380 110L380 0L372.2 0C364.3 0 348.7 0 332.8 0C317 0 301 0 285.2 0C269.3 0 253.7 0 237.8 0C222 0 206 0 190.2 0C174.3 0 158.7 0 142.8 0C127 0 111 0 95.2 0C79.3 0 63.7 0 47.8 0C32 0 16 0 8 0L0 0Z"
        fill="#e2e2e2"></path>
    <path
        d="M0 71L8 72.7C16 74.3 32 77.7 47.8 79.5C63.7 81.3 79.3 81.7 95.2 79.7C111 77.7 127 73.3 142.8 72.3C158.7 71.3 174.3 73.7 190.2 73.8C206 74 222 72 237.8 74C253.7 76 269.3 82 285.2 83.2C301 84.3 317 80.7 332.8 78C348.7 75.3 364.3 73.7 372.2 72.8L380 72L380 0L372.2 0C364.3 0 348.7 0 332.8 0C317 0 301 0 285.2 0C269.3 0 253.7 0 237.8 0C222 0 206 0 190.2 0C174.3 0 158.7 0 142.8 0C127 0 111 0 95.2 0C79.3 0 63.7 0 47.8 0C32 0 16 0 8 0L0 0Z"
        fill="#e2e2e2"></path>
    <path
        d="M0 54L8 55.2C16 56.3 32 58.7 47.8 62C63.7 65.3 79.3 69.7 95.2 70.3C111 71 127 68 142.8 67.7C158.7 67.3 174.3 69.7 190.2 69.3C206 69 222 66 237.8 66.5C253.7 67 269.3 71 285.2 70.5C301 70 317 65 332.8 62.3C348.7 59.7 364.3 59.3 372.2 59.2L380 59L380 0L372.2 0C364.3 0 348.7 0 332.8 0C317 0 301 0 285.2 0C269.3 0 253.7 0 237.8 0C222 0 206 0 190.2 0C174.3 0 158.7 0 142.8 0C127 0 111 0 95.2 0C79.3 0 63.7 0 47.8 0C32 0 16 0 8 0L0 0Z"
        fill="#f4f4f4"></path>
    <path
        d="M0 47L8 49.7C16 52.3 32 57.7 47.8 59.2C63.7 60.7 79.3 58.3 95.2 57C111 55.7 127 55.3 142.8 54C158.7 52.7 174.3 50.3 190.2 50.3C206 50.3 222 52.7 237.8 55C253.7 57.3 269.3 59.7 285.2 57.5C301 55.3 317 48.7 332.8 49.5C348.7 50.3 364.3 58.7 372.2 62.8L380 67L380 0L372.2 0C364.3 0 348.7 0 332.8 0C317 0 301 0 285.2 0C269.3 0 253.7 0 237.8 0C222 0 206 0 190.2 0C174.3 0 158.7 0 142.8 0C127 0 111 0 95.2 0C79.3 0 63.7 0 47.8 0C32 0 16 0 8 0L0 0Z"
        fill="#ebebeb"></path>
    <path
        d="M0 38L8 36.5C16 35 32 32 47.8 33C63.7 34 79.3 39 95.2 41C111 43 127 42 142.8 42.7C158.7 43.3 174.3 45.7 190.2 45.5C206 45.3 222 42.7 237.8 41C253.7 39.3 269.3 38.7 285.2 38.5C301 38.3 317 38.7 332.8 38C348.7 37.3 364.3 35.7 372.2 34.8L380 34L380 0L372.2 0C364.3 0 348.7 0 332.8 0C317 0 301 0 285.2 0C269.3 0 253.7 0 237.8 0C222 0 206 0 190.2 0C174.3 0 158.7 0 142.8 0C127 0 111 0 95.2 0C79.3 0 63.7 0 47.8 0C32 0 16 0 8 0L0 0Z"
        fill="#f3f3f3"></path>
    <path
        d="M0 31L8 31.3C16 31.7 32 32.3 47.8 33.3C63.7 34.3 79.3 35.7 95.2 36.5C111 37.3 127 37.7 142.8 35.7C158.7 33.7 174.3 29.3 190.2 29.3C206 29.3 222 33.7 237.8 33.7C253.7 33.7 269.3 29.3 285.2 27.5C301 25.7 317 26.3 332.8 27.5C348.7 28.7 364.3 30.3 372.2 31.2L380 32L380 0L372.2 0C364.3 0 348.7 0 332.8 0C317 0 301 0 285.2 0C269.3 0 253.7 0 237.8 0C222 0 206 0 190.2 0C174.3 0 158.7 0 142.8 0C127 0 111 0 95.2 0C79.3 0 63.7 0 47.8 0C32 0 16 0 8 0L0 0Z"
        fill="#f2f2f2"></path>
    <path
        d="M0 15L8 14.3C16 13.7 32 12.3 47.8 13.3C63.7 14.3 79.3 17.7 95.2 17.3C111 17 127 13 142.8 10.8C158.7 8.7 174.3 8.3 190.2 7.7C206 7 222 6 237.8 6.2C253.7 6.3 269.3 7.7 285.2 9C301 10.3 317 11.7 332.8 14C348.7 16.3 364.3 19.7 372.2 21.3L380 23L380 0L372.2 0C364.3 0 348.7 0 332.8 0C317 0 301 0 285.2 0C269.3 0 253.7 0 237.8 0C222 0 206 0 190.2 0C174.3 0 158.7 0 142.8 0C127 0 111 0 95.2 0C79.3 0 63.7 0 47.8 0C32 0 16 0 8 0L0 0Z"
        fill="#ffffff"></path>
</svg>