<svg id="visual" viewBox="0 0 450 920" width="450" height="920" preserveAspectRatio="none" xmlns="http://www.w3.org/2000/svg"
    xmlns:xlink="http://www.w3.org/1999/xlink" version="1.1">
    <path
        d="M0 259L18.8 251.3C37.7 243.7 75.3 228.3 112.8 231.3C150.3 234.3 187.7 255.7 225.2 244.8C262.7 234 300.3 191 337.8 180.3C375.3 169.7 412.7 191.3 431.3 202.2L450 213L450 0L431.3 0C412.7 0 375.3 0 337.8 0C300.3 0 262.7 0 225.2 0C187.7 0 150.3 0 112.8 0C75.3 0 37.7 0 18.8 0L0 0Z"
        fill="#a3a3a3"></path>
    <path
        d="M0 406L18.8 430.5C37.7 455 75.3 504 112.8 513.2C150.3 522.3 187.7 491.7 225.2 468.7C262.7 445.7 300.3 430.3 337.8 430.3C375.3 430.3 412.7 445.7 431.3 453.3L450 461L450 211L431.3 200.2C412.7 189.3 375.3 167.7 337.8 178.3C300.3 189 262.7 232 225.2 242.8C187.7 253.7 150.3 232.3 112.8 229.3C75.3 226.3 37.7 241.7 18.8 249.3L0 257Z"
        fill="#a9a9a9"></path>
    <path
        d="M0 507L18.8 525.3C37.7 543.7 75.3 580.3 112.8 594.2C150.3 608 187.7 599 225.2 580.7C262.7 562.3 300.3 534.7 337.8 522.3C375.3 510 412.7 513 431.3 514.5L450 516L450 459L431.3 451.3C412.7 443.7 375.3 428.3 337.8 428.3C300.3 428.3 262.7 443.7 225.2 466.7C187.7 489.7 150.3 520.3 112.8 511.2C75.3 502 37.7 453 18.8 428.5L0 404Z"
        fill="#aeaeae"></path>
    <path
        d="M0 627L18.8 637.7C37.7 648.3 75.3 669.7 112.8 683.3C150.3 697 187.7 703 225.2 681.5C262.7 660 300.3 611 337.8 597.3C375.3 583.7 412.7 605.3 431.3 616.2L450 627L450 514L431.3 512.5C412.7 511 375.3 508 337.8 520.3C300.3 532.7 262.7 560.3 225.2 578.7C187.7 597 150.3 606 112.8 592.2C75.3 578.3 37.7 541.7 18.8 523.3L0 505Z"
        fill="#b4b4b4"></path>
    <path
        d="M0 774L18.8 784.7C37.7 795.3 75.3 816.7 112.8 828.8C150.3 841 187.7 844 225.2 831.8C262.7 819.7 300.3 792.3 337.8 777C375.3 761.7 412.7 758.3 431.3 756.7L450 755L450 625L431.3 614.2C412.7 603.3 375.3 581.7 337.8 595.3C300.3 609 262.7 658 225.2 679.5C187.7 701 150.3 695 112.8 681.3C75.3 667.7 37.7 646.3 18.8 635.7L0 625Z"
        fill="#b9b9b9"></path>
    <path
        d="M0 921L18.8 921C37.7 921 75.3 921 112.8 921C150.3 921 187.7 921 225.2 921C262.7 921 300.3 921 337.8 921C375.3 921 412.7 921 431.3 921L450 921L450 753L431.3 754.7C412.7 756.3 375.3 759.7 337.8 775C300.3 790.3 262.7 817.7 225.2 829.8C187.7 842 150.3 839 112.8 826.8C75.3 814.7 37.7 793.3 18.8 782.7L0 772Z"
        fill="#bfbfbf"></path>
</svg>