<svg width="32" height="32" viewBox="0 0 32 32" fill="none" xmlns="http://www.w3.org/2000/svg">
<path fill-rule="evenodd" clip-rule="evenodd" d="M7.00002 14.4067V11.6667C7.00002 9.27972 7.94823 6.99053 9.63606 5.30271C11.3239 3.61488 13.6131 2.66667 16 2.66667C18.387 2.66667 20.6762 3.61488 22.364 5.30271C24.0518 6.99053 25 9.27972 25 11.6667V14.4067C26.4867 14.5173 27.4534 14.7973 28.1614 15.5053C29.3334 16.676 29.3334 18.5627 29.3334 22.3333C29.3334 26.104 29.3334 27.9907 28.1614 29.1613C26.9907 30.3333 25.104 30.3333 21.3334 30.3333H10.6667C6.89602 30.3333 5.00935 30.3333 3.83869 29.1613C2.66669 27.9907 2.66669 26.104 2.66669 22.3333C2.66669 18.5627 2.66669 16.676 3.83869 15.5053C4.54535 14.7973 5.51335 14.5173 7.00002 14.4067ZM9.00002 11.6667C9.00002 9.81015 9.73752 8.02967 11.0503 6.71692C12.363 5.40416 14.1435 4.66667 16 4.66667C17.8565 4.66667 19.637 5.40416 20.9498 6.71692C22.2625 8.02967 23 9.81015 23 11.6667V14.3387C22.4894 14.3333 21.9347 14.3333 21.3334 14.3333H10.6667C10.064 14.3333 9.51069 14.3333 9.00002 14.3387V11.6667ZM10.6667 23.6667C11.0203 23.6667 11.3594 23.5262 11.6095 23.2761C11.8595 23.0261 12 22.687 12 22.3333C12 21.9797 11.8595 21.6406 11.6095 21.3905C11.3594 21.1405 11.0203 21 10.6667 21C10.3131 21 9.97393 21.1405 9.72388 21.3905C9.47383 21.6406 9.33335 21.9797 9.33335 22.3333C9.33335 22.687 9.47383 23.0261 9.72388 23.2761C9.97393 23.5262 10.3131 23.6667 10.6667 23.6667ZM16 23.6667C16.3536 23.6667 16.6928 23.5262 16.9428 23.2761C17.1929 23.0261 17.3334 22.687 17.3334 22.3333C17.3334 21.9797 17.1929 21.6406 16.9428 21.3905C16.6928 21.1405 16.3536 21 16 21C15.6464 21 15.3073 21.1405 15.0572 21.3905C14.8072 21.6406 14.6667 21.9797 14.6667 22.3333C14.6667 22.687 14.8072 23.0261 15.0572 23.2761C15.3073 23.5262 15.6464 23.6667 16 23.6667ZM22.6667 22.3333C22.6667 22.687 22.5262 23.0261 22.2762 23.2761C22.0261 23.5262 21.687 23.6667 21.3334 23.6667C20.9797 23.6667 20.6406 23.5262 20.3905 23.2761C20.1405 23.0261 20 22.687 20 22.3333C20 21.9797 20.1405 21.6406 20.3905 21.3905C20.6406 21.1405 20.9797 21 21.3334 21C21.687 21 22.0261 21.1405 22.2762 21.3905C22.5262 21.6406 22.6667 21.9797 22.6667 22.3333Z" fill="#C5C5C5"/>
</svg>
