<svg id="visual" viewBox="0 0 900 200" width="900" height="200" preserveAspectRatio="none"
    xmlns="http://www.w3.org/2000/svg" xmlns:xlink="http://www.w3.org/1999/xlink" version="1.1">
    <path
        d="M0 165L16.7 147C33.3 129 66.7 93 100 81C133.3 69 166.7 81 200 88.7C233.3 96.3 266.7 99.7 300 96C333.3 92.3 366.7 81.7 400 69.3C433.3 57 466.7 43 500 49.7C533.3 56.3 566.7 83.7 600 92C633.3 100.3 666.7 89.7 700 88.7C733.3 87.7 766.7 96.3 800 91.7C833.3 87 866.7 69 883.3 60L900 51L900 0L883.3 0C866.7 0 833.3 0 800 0C766.7 0 733.3 0 700 0C666.7 0 633.3 0 600 0C566.7 0 533.3 0 500 0C466.7 0 433.3 0 400 0C366.7 0 333.3 0 300 0C266.7 0 233.3 0 200 0C166.7 0 133.3 0 100 0C66.7 0 33.3 0 16.7 0L0 0Z"
        fill="#3d82ea"></path>
    <path
        d="M0 187L16.7 177.3C33.3 167.7 66.7 148.3 100 143C133.3 137.7 166.7 146.3 200 144.7C233.3 143 266.7 131 300 128.7C333.3 126.3 366.7 133.7 400 134C433.3 134.3 466.7 127.7 500 135C533.3 142.3 566.7 163.7 600 171C633.3 178.3 666.7 171.7 700 173C733.3 174.3 766.7 183.7 800 180.7C833.3 177.7 866.7 162.3 883.3 154.7L900 147L900 49L883.3 58C866.7 67 833.3 85 800 89.7C766.7 94.3 733.3 85.7 700 86.7C666.7 87.7 633.3 98.3 600 90C566.7 81.7 533.3 54.3 500 47.7C466.7 41 433.3 55 400 67.3C366.7 79.7 333.3 90.3 300 94C266.7 97.7 233.3 94.3 200 86.7C166.7 79 133.3 67 100 79C66.7 91 33.3 127 16.7 145L0 163Z"
        fill="#62a0f2"></path>
    <path
        d="M0 201L16.7 201C33.3 201 66.7 201 100 201C133.3 201 166.7 201 200 201C233.3 201 266.7 201 300 201C333.3 201 366.7 201 400 201C433.3 201 466.7 201 500 201C533.3 201 566.7 201 600 201C633.3 201 666.7 201 700 201C733.3 201 766.7 201 800 201C833.3 201 866.7 201 883.3 201L900 201L900 145L883.3 152.7C866.7 160.3 833.3 175.7 800 178.7C766.7 181.7 733.3 172.3 700 171C666.7 169.7 633.3 176.3 600 169C566.7 161.7 533.3 140.3 500 133C466.7 125.7 433.3 132.3 400 132C366.7 131.7 333.3 124.3 300 126.7C266.7 129 233.3 141 200 142.7C166.7 144.3 133.3 135.7 100 141C66.7 146.3 33.3 165.7 16.7 175.3L0 185Z"
        fill="#8bbdf7"></path>
</svg>