<svg id="visual" viewBox="0 0 450 920" width="450" height="920" preserveAspectRatio="none" xmlns="http://www.w3.org/2000/svg"
    xmlns:xlink="http://www.w3.org/1999/xlink" version="1.1">
    <path
        d="M0 93L18.8 93C37.7 93 75.3 93 112.8 96C150.3 99 187.7 105 225.2 108C262.7 111 300.3 111 337.8 109.5C375.3 108 412.7 105 431.3 103.5L450 102L450 0L431.3 0C412.7 0 375.3 0 337.8 0C300.3 0 262.7 0 225.2 0C187.7 0 150.3 0 112.8 0C75.3 0 37.7 0 18.8 0L0 0Z"
        fill="#bfbfbf"></path>
    <path
        d="M0 314L18.8 315.5C37.7 317 75.3 320 112.8 324.5C150.3 329 187.7 335 225.2 335C262.7 335 300.3 329 337.8 335.2C375.3 341.3 412.7 359.7 431.3 368.8L450 378L450 100L431.3 101.5C412.7 103 375.3 106 337.8 107.5C300.3 109 262.7 109 225.2 106C187.7 103 150.3 97 112.8 94C75.3 91 37.7 91 18.8 91L0 91Z"
        fill="#cecece"></path>
    <path
        d="M0 443L18.8 449C37.7 455 75.3 467 112.8 471.5C150.3 476 187.7 473 225.2 474.7C262.7 476.3 300.3 482.7 337.8 487.3C375.3 492 412.7 495 431.3 496.5L450 498L450 376L431.3 366.8C412.7 357.7 375.3 339.3 337.8 333.2C300.3 327 262.7 333 225.2 333C187.7 333 150.3 327 112.8 322.5C75.3 318 37.7 315 18.8 313.5L0 312Z"
        fill="#c6c6c6"></path>
    <path
        d="M0 544L18.8 548.5C37.7 553 75.3 562 112.8 566.5C150.3 571 187.7 571 225.2 571C262.7 571 300.3 571 337.8 577.2C375.3 583.3 412.7 595.7 431.3 601.8L450 608L450 496L431.3 494.5C412.7 493 375.3 490 337.8 485.3C300.3 480.7 262.7 474.3 225.2 472.7C187.7 471 150.3 474 112.8 469.5C75.3 465 37.7 453 18.8 447L0 441Z"
        fill="#c6c6c6"></path>
    <path
        d="M0 627L18.8 631.5C37.7 636 75.3 645 112.8 652.7C150.3 660.3 187.7 666.7 225.2 669.8C262.7 673 300.3 673 337.8 674.5C375.3 676 412.7 679 431.3 680.5L450 682L450 606L431.3 599.8C412.7 593.7 375.3 581.3 337.8 575.2C300.3 569 262.7 569 225.2 569C187.7 569 150.3 569 112.8 564.5C75.3 560 37.7 551 18.8 546.5L0 542Z"
        fill="#d1d1d1"></path>
    <path
        d="M0 921L18.8 921C37.7 921 75.3 921 112.8 921C150.3 921 187.7 921 225.2 921C262.7 921 300.3 921 337.8 921C375.3 921 412.7 921 431.3 921L450 921L450 680L431.3 678.5C412.7 677 375.3 674 337.8 672.5C300.3 671 262.7 671 225.2 667.8C187.7 664.7 150.3 658.3 112.8 650.7C75.3 643 37.7 634 18.8 629.5L0 625Z"
        fill="#c6c6c6"></path>
</svg>