<svg id="visual" viewBox="0 0 450 900" width="450" height="900" preserveAspectRatio="none" xmlns="http://www.w3.org/2000/svg"
    xmlns:xlink="http://www.w3.org/1999/xlink" version="1.1">
    <rect x="0" y="0" width="450" height="900" fill="#ffffff"></rect>
    <path
        d="M0 177L10.7 182C21.3 187 42.7 197 64.2 198.7C85.7 200.3 107.3 193.7 128.8 194.7C150.3 195.7 171.7 204.3 193 197.5C214.3 190.7 235.7 168.3 257 158.5C278.3 148.7 299.7 151.3 321.2 153.8C342.7 156.3 364.3 158.7 385.8 168.3C407.3 178 428.7 195 439.3 203.5L450 212L450 0L439.3 0C428.7 0 407.3 0 385.8 0C364.3 0 342.7 0 321.2 0C299.7 0 278.3 0 257 0C235.7 0 214.3 0 193 0C171.7 0 150.3 0 128.8 0C107.3 0 85.7 0 64.2 0C42.7 0 21.3 0 10.7 0L0 0Z"
        fill="#e5f3ff"></path>
    <path
        d="M0 147L10.7 142.7C21.3 138.3 42.7 129.7 64.2 135.7C85.7 141.7 107.3 162.3 128.8 161C150.3 159.7 171.7 136.3 193 130.5C214.3 124.7 235.7 136.3 257 137.2C278.3 138 299.7 128 321.2 130.7C342.7 133.3 364.3 148.7 385.8 149.8C407.3 151 428.7 138 439.3 131.5L450 125L450 0L439.3 0C428.7 0 407.3 0 385.8 0C364.3 0 342.7 0 321.2 0C299.7 0 278.3 0 257 0C235.7 0 214.3 0 193 0C171.7 0 150.3 0 128.8 0C107.3 0 85.7 0 64.2 0C42.7 0 21.3 0 10.7 0L0 0Z"
        fill="#b6d9fb"></path>
    <path
        d="M0 100L10.7 99.8C21.3 99.7 42.7 99.3 64.2 96.2C85.7 93 107.3 87 128.8 83.7C150.3 80.3 171.7 79.7 193 83.8C214.3 88 235.7 97 257 103C278.3 109 299.7 112 321.2 110.7C342.7 109.3 364.3 103.7 385.8 98C407.3 92.3 428.7 86.7 439.3 83.8L450 81L450 0L439.3 0C428.7 0 407.3 0 385.8 0C364.3 0 342.7 0 321.2 0C299.7 0 278.3 0 257 0C235.7 0 214.3 0 193 0C171.7 0 150.3 0 128.8 0C107.3 0 85.7 0 64.2 0C42.7 0 21.3 0 10.7 0L0 0Z"
        fill="#8bbdf7"></path>
    <path
        d="M0 93L10.7 90.2C21.3 87.3 42.7 81.7 64.2 82.8C85.7 84 107.3 92 128.8 92.2C150.3 92.3 171.7 84.7 193 84.2C214.3 83.7 235.7 90.3 257 88C278.3 85.7 299.7 74.3 321.2 73C342.7 71.7 364.3 80.3 385.8 78.3C407.3 76.3 428.7 63.7 439.3 57.3L450 51L450 0L439.3 0C428.7 0 407.3 0 385.8 0C364.3 0 342.7 0 321.2 0C299.7 0 278.3 0 257 0C235.7 0 214.3 0 193 0C171.7 0 150.3 0 128.8 0C107.3 0 85.7 0 64.2 0C42.7 0 21.3 0 10.7 0L0 0Z"
        fill="#62a0f2"></path>
    <path
        d="M0 39L10.7 39C21.3 39 42.7 39 64.2 43.3C85.7 47.7 107.3 56.3 128.8 55C150.3 53.7 171.7 42.3 193 35.2C214.3 28 235.7 25 257 30.5C278.3 36 299.7 50 321.2 56.2C342.7 62.3 364.3 60.7 385.8 53.7C407.3 46.7 428.7 34.3 439.3 28.2L450 22L450 0L439.3 0C428.7 0 407.3 0 385.8 0C364.3 0 342.7 0 321.2 0C299.7 0 278.3 0 257 0C235.7 0 214.3 0 193 0C171.7 0 150.3 0 128.8 0C107.3 0 85.7 0 64.2 0C42.7 0 21.3 0 10.7 0L0 0Z"
        fill="#3d82ea"></path>
</svg>