<svg id="visual" viewBox="0 0 380 200" width="380" height="200" preserveAspectRatio="none" xmlns="http://www.w3.org/2000/svg"
    xmlns:xlink="http://www.w3.org/1999/xlink" version="1.1">
    <rect x="0" y="0" width="380" height="200" fill="#ffffff"></rect>
    <path
        d="M0 157L9 147.7C18 138.3 36 119.7 54.2 115.5C72.3 111.3 90.7 121.7 108.8 132C127 142.3 145 152.7 163 149.7C181 146.7 199 130.3 217 121.7C235 113 253 112 271.2 112C289.3 112 307.7 113 325.8 119.5C344 126 362 138 371 144L380 150L380 0L371 0C362 0 344 0 325.8 0C307.7 0 289.3 0 271.2 0C253 0 235 0 217 0C199 0 181 0 163 0C145 0 127 0 108.8 0C90.7 0 72.3 0 54.2 0C36 0 18 0 9 0L0 0Z"
        fill="#e5f3ff"></path>
    <path
        d="M0 107L9 107.5C18 108 36 109 54.2 112.7C72.3 116.3 90.7 122.7 108.8 119.8C127 117 145 105 163 100.2C181 95.3 199 97.7 217 101.2C235 104.7 253 109.3 271.2 108.2C289.3 107 307.7 100 325.8 95.8C344 91.7 362 90.3 371 89.7L380 89L380 0L371 0C362 0 344 0 325.8 0C307.7 0 289.3 0 271.2 0C253 0 235 0 217 0C199 0 181 0 163 0C145 0 127 0 108.8 0C90.7 0 72.3 0 54.2 0C36 0 18 0 9 0L0 0Z"
        fill="#b6d9fb"></path>
    <path
        d="M0 76L9 74.5C18 73 36 70 54.2 68.8C72.3 67.7 90.7 68.3 108.8 73.3C127 78.3 145 87.7 163 90.7C181 93.7 199 90.3 217 89.3C235 88.3 253 89.7 271.2 85.3C289.3 81 307.7 71 325.8 71.7C344 72.3 362 83.7 371 89.3L380 95L380 0L371 0C362 0 344 0 325.8 0C307.7 0 289.3 0 271.2 0C253 0 235 0 217 0C199 0 181 0 163 0C145 0 127 0 108.8 0C90.7 0 72.3 0 54.2 0C36 0 18 0 9 0L0 0Z"
        fill="#8bbdf7"></path>
    <path
        d="M0 68L9 67C18 66 36 64 54.2 63.3C72.3 62.7 90.7 63.3 108.8 64.2C127 65 145 66 163 65.7C181 65.3 199 63.7 217 65C235 66.3 253 70.7 271.2 70C289.3 69.3 307.7 63.7 325.8 62.2C344 60.7 362 63.3 371 64.7L380 66L380 0L371 0C362 0 344 0 325.8 0C307.7 0 289.3 0 271.2 0C253 0 235 0 217 0C199 0 181 0 163 0C145 0 127 0 108.8 0C90.7 0 72.3 0 54.2 0C36 0 18 0 9 0L0 0Z"
        fill="#62a0f2"></path>
    <path
        d="M0 48L9 45.5C18 43 36 38 54.2 33.7C72.3 29.3 90.7 25.7 108.8 23.5C127 21.3 145 20.7 163 25.2C181 29.7 199 39.3 217 43.8C235 48.3 253 47.7 271.2 43.2C289.3 38.7 307.7 30.3 325.8 25.3C344 20.3 362 18.7 371 17.8L380 17L380 0L371 0C362 0 344 0 325.8 0C307.7 0 289.3 0 271.2 0C253 0 235 0 217 0C199 0 181 0 163 0C145 0 127 0 108.8 0C90.7 0 72.3 0 54.2 0C36 0 18 0 9 0L0 0Z"
        fill="#3d82ea"></path>
</svg>