<svg id="visual" viewBox="0 0 380 200" width="380" height="200" preserveAspectRatio="none" xmlns="http://www.w3.org/2000/svg"
    xmlns:xlink="http://www.w3.org/1999/xlink" version="1.1">
    <rect x="0" y="0" width="380" height="200" fill="#DBDBDB"></rect>
    <path
        d="M0 124L8 126.8C16 129.7 32 135.3 47.8 142.8C63.7 150.3 79.3 159.7 95.2 159.3C111 159 127 149 142.8 141.8C158.7 134.7 174.3 130.3 190.2 134.8C206 139.3 222 152.7 237.8 159.2C253.7 165.7 269.3 165.3 285.2 165.2C301 165 317 165 332.8 157.2C348.7 149.3 364.3 133.7 372.2 125.8L380 118L380 0L372.2 0C364.3 0 348.7 0 332.8 0C317 0 301 0 285.2 0C269.3 0 253.7 0 237.8 0C222 0 206 0 190.2 0C174.3 0 158.7 0 142.8 0C127 0 111 0 95.2 0C79.3 0 63.7 0 47.8 0C32 0 16 0 8 0L0 0Z"
        fill="#d1d1d1"></path>
    <path
        d="M0 113L8 111.2C16 109.3 32 105.7 47.8 106.3C63.7 107 79.3 112 95.2 117.8C111 123.7 127 130.3 142.8 132.7C158.7 135 174.3 133 190.2 119.7C206 106.3 222 81.7 237.8 74.5C253.7 67.3 269.3 77.7 285.2 77.5C301 77.3 317 66.7 332.8 74.5C348.7 82.3 364.3 108.7 372.2 121.8L380 135L380 0L372.2 0C364.3 0 348.7 0 332.8 0C317 0 301 0 285.2 0C269.3 0 253.7 0 237.8 0C222 0 206 0 190.2 0C174.3 0 158.7 0 142.8 0C127 0 111 0 95.2 0C79.3 0 63.7 0 47.8 0C32 0 16 0 8 0L0 0Z"
        fill="#c9c9c9"></path>
    <path
        d="M0 48L8 47.8C16 47.7 32 47.3 47.8 50.8C63.7 54.3 79.3 61.7 95.2 63.7C111 65.7 127 62.3 142.8 68.2C158.7 74 174.3 89 190.2 93.5C206 98 222 92 237.8 83.3C253.7 74.7 269.3 63.3 285.2 65.3C301 67.3 317 82.7 332.8 81.7C348.7 80.7 364.3 63.3 372.2 54.7L380 46L380 0L372.2 0C364.3 0 348.7 0 332.8 0C317 0 301 0 285.2 0C269.3 0 253.7 0 237.8 0C222 0 206 0 190.2 0C174.3 0 158.7 0 142.8 0C127 0 111 0 95.2 0C79.3 0 63.7 0 47.8 0C32 0 16 0 8 0L0 0Z"
        fill="#c1c1c1"></path>
    <path
        d="M0 52L8 50.8C16 49.7 32 47.3 47.8 47.3C63.7 47.3 79.3 49.7 95.2 48.8C111 48 127 44 142.8 51.2C158.7 58.3 174.3 76.7 190.2 86.5C206 96.3 222 97.7 237.8 87.3C253.7 77 269.3 55 285.2 43.7C301 32.3 317 31.7 332.8 34C348.7 36.3 364.3 41.7 372.2 44.3L380 47L380 0L372.2 0C364.3 0 348.7 0 332.8 0C317 0 301 0 285.2 0C269.3 0 253.7 0 237.8 0C222 0 206 0 190.2 0C174.3 0 158.7 0 142.8 0C127 0 111 0 95.2 0C79.3 0 63.7 0 47.8 0C32 0 16 0 8 0L0 0Z"
        fill="#b6b6b6"></path>
    <path
        d="M0 71L8 67.7C16 64.3 32 57.7 47.8 55.8C63.7 54 79.3 57 95.2 56.7C111 56.3 127 52.7 142.8 49.3C158.7 46 174.3 43 190.2 46.3C206 49.7 222 59.3 237.8 56.8C253.7 54.3 269.3 39.7 285.2 32C301 24.3 317 23.7 332.8 24.7C348.7 25.7 364.3 28.3 372.2 29.7L380 31L380 0L372.2 0C364.3 0 348.7 0 332.8 0C317 0 301 0 285.2 0C269.3 0 253.7 0 237.8 0C222 0 206 0 190.2 0C174.3 0 158.7 0 142.8 0C127 0 111 0 95.2 0C79.3 0 63.7 0 47.8 0C32 0 16 0 8 0L0 0Z"
        fill="#a9a9a9"></path>
    <path
        d="M0 34L8 33.8C16 33.7 32 33.3 47.8 32.3C63.7 31.3 79.3 29.7 95.2 25.5C111 21.3 127 14.7 142.8 13.2C158.7 11.7 174.3 15.3 190.2 16C206 16.7 222 14.3 237.8 13C253.7 11.7 269.3 11.3 285.2 16.3C301 21.3 317 31.7 332.8 32.5C348.7 33.3 364.3 24.7 372.2 20.3L380 16L380 0L372.2 0C364.3 0 348.7 0 332.8 0C317 0 301 0 285.2 0C269.3 0 253.7 0 237.8 0C222 0 206 0 190.2 0C174.3 0 158.7 0 142.8 0C127 0 111 0 95.2 0C79.3 0 63.7 0 47.8 0C32 0 16 0 8 0L0 0Z"
        fill="#9c9c9c"></path>
</svg>