<svg id="visual" viewBox="0 0 900 200" width="900" height="200" preserveAspectRatio="none" xmlns="http://www.w3.org/2000/svg"
    xmlns:xlink="http://www.w3.org/1999/xlink" version="1.1">
    <rect x="0" y="0" width="900" height="200" fill="#86cdff"></rect>
    <path
        d="M0 67L21.5 66.2C43 65.3 86 63.7 128.8 57.8C171.7 52 214.3 42 257.2 43.5C300 45 343 58 385.8 67.2C428.7 76.3 471.3 81.7 514.2 91.2C557 100.7 600 114.3 642.8 108.8C685.7 103.3 728.3 78.7 771.2 75.2C814 71.7 857 89.3 878.5 98.2L900 107L900 201L878.5 201C857 201 814 201 771.2 201C728.3 201 685.7 201 642.8 201C600 201 557 201 514.2 201C471.3 201 428.7 201 385.8 201C343 201 300 201 257.2 201C214.3 201 171.7 201 128.8 201C86 201 43 201 21.5 201L0 201Z"
        fill="#93abf6"></path>
    <path
        d="M0 101L21.5 107C43 113 86 125 128.8 118.8C171.7 112.7 214.3 88.3 257.2 88.5C300 88.7 343 113.3 385.8 126.7C428.7 140 471.3 142 514.2 131.8C557 121.7 600 99.3 642.8 86.7C685.7 74 728.3 71 771.2 70.3C814 69.7 857 71.3 878.5 72.2L900 73L900 201L878.5 201C857 201 814 201 771.2 201C728.3 201 685.7 201 642.8 201C600 201 557 201 514.2 201C471.3 201 428.7 201 385.8 201C343 201 300 201 257.2 201C214.3 201 171.7 201 128.8 201C86 201 43 201 21.5 201L0 201Z"
        fill="#b1bff9"></path>
    <path
        d="M0 151L21.5 150.3C43 149.7 86 148.3 128.8 150.2C171.7 152 214.3 157 257.2 153.8C300 150.7 343 139.3 385.8 126.7C428.7 114 471.3 100 514.2 102.3C557 104.7 600 123.3 642.8 132.5C685.7 141.7 728.3 141.3 771.2 139.8C814 138.3 857 135.7 878.5 134.3L900 133L900 201L878.5 201C857 201 814 201 771.2 201C728.3 201 685.7 201 642.8 201C600 201 557 201 514.2 201C471.3 201 428.7 201 385.8 201C343 201 300 201 257.2 201C214.3 201 171.7 201 128.8 201C86 201 43 201 21.5 201L0 201Z"
        fill="#ccd4fb"></path>
    <path
        d="M0 126L21.5 127.2C43 128.3 86 130.7 128.8 138.8C171.7 147 214.3 161 257.2 162.7C300 164.3 343 153.7 385.8 152.2C428.7 150.7 471.3 158.3 514.2 158.3C557 158.3 600 150.7 642.8 144C685.7 137.3 728.3 131.7 771.2 127.8C814 124 857 122 878.5 121L900 120L900 201L878.5 201C857 201 814 201 771.2 201C728.3 201 685.7 201 642.8 201C600 201 557 201 514.2 201C471.3 201 428.7 201 385.8 201C343 201 300 201 257.2 201C214.3 201 171.7 201 128.8 201C86 201 43 201 21.5 201L0 201Z"
        fill="#e6e9fd"></path>
    <path
        d="M0 154L21.5 159C43 164 86 174 128.8 173.8C171.7 173.7 214.3 163.3 257.2 160.3C300 157.3 343 161.7 385.8 160.8C428.7 160 471.3 154 514.2 152.8C557 151.7 600 155.3 642.8 158.7C685.7 162 728.3 165 771.2 168.7C814 172.3 857 176.7 878.5 178.8L900 181L900 201L878.5 201C857 201 814 201 771.2 201C728.3 201 685.7 201 642.8 201C600 201 557 201 514.2 201C471.3 201 428.7 201 385.8 201C343 201 300 201 257.2 201C214.3 201 171.7 201 128.8 201C86 201 43 201 21.5 201L0 201Z"
        fill="#ffffff"></path>
</svg>