<svg id="visual" viewBox="0 0 380 200" width="380" height="200" preserveAspectRatio="none" xmlns="http://www.w3.org/2000/svg"
    xmlns:xlink="http://www.w3.org/1999/xlink" version="1.1">
    <rect x="0" y="0" width="380" height="200" fill="#ffffff"></rect>
    <path
        d="M0 52L9 56.8C18 61.7 36 71.3 54.2 73.5C72.3 75.7 90.7 70.3 108.8 70.5C127 70.7 145 76.3 163 72.5C181 68.7 199 55.3 217 55.2C235 55 253 68 271.2 72.8C289.3 77.7 307.7 74.3 325.8 75.8C344 77.3 362 83.7 371 86.8L380 90L380 201L371 201C362 201 344 201 325.8 201C307.7 201 289.3 201 271.2 201C253 201 235 201 217 201C199 201 181 201 163 201C145 201 127 201 108.8 201C90.7 201 72.3 201 54.2 201C36 201 18 201 9 201L0 201Z"
        fill="#e5f3ff"></path>
    <path
        d="M0 85L9 89.7C18 94.3 36 103.7 54.2 102.3C72.3 101 90.7 89 108.8 87.5C127 86 145 95 163 99.3C181 103.7 199 103.3 217 99.2C235 95 253 87 271.2 89.3C289.3 91.7 307.7 104.3 325.8 109.2C344 114 362 111 371 109.5L380 108L380 201L371 201C362 201 344 201 325.8 201C307.7 201 289.3 201 271.2 201C253 201 235 201 217 201C199 201 181 201 163 201C145 201 127 201 108.8 201C90.7 201 72.3 201 54.2 201C36 201 18 201 9 201L0 201Z"
        fill="#b6d9fb"></path>
    <path
        d="M0 135L9 134.8C18 134.7 36 134.3 54.2 128.8C72.3 123.3 90.7 112.7 108.8 112C127 111.3 145 120.7 163 125.5C181 130.3 199 130.7 217 131.5C235 132.3 253 133.7 271.2 133.2C289.3 132.7 307.7 130.3 325.8 128.8C344 127.3 362 126.7 371 126.3L380 126L380 201L371 201C362 201 344 201 325.8 201C307.7 201 289.3 201 271.2 201C253 201 235 201 217 201C199 201 181 201 163 201C145 201 127 201 108.8 201C90.7 201 72.3 201 54.2 201C36 201 18 201 9 201L0 201Z"
        fill="#8bbdf7"></path>
    <path
        d="M0 155L9 154.3C18 153.7 36 152.3 54.2 150.5C72.3 148.7 90.7 146.3 108.8 141.8C127 137.3 145 130.7 163 128.3C181 126 199 128 217 127.5C235 127 253 124 271.2 126.7C289.3 129.3 307.7 137.7 325.8 140.2C344 142.7 362 139.3 371 137.7L380 136L380 201L371 201C362 201 344 201 325.8 201C307.7 201 289.3 201 271.2 201C253 201 235 201 217 201C199 201 181 201 163 201C145 201 127 201 108.8 201C90.7 201 72.3 201 54.2 201C36 201 18 201 9 201L0 201Z"
        fill="#62a0f2"></path>
    <path
        d="M0 174L9 171.5C18 169 36 164 54.2 163.8C72.3 163.7 90.7 168.3 108.8 169.8C127 171.3 145 169.7 163 167C181 164.3 199 160.7 217 160.7C235 160.7 253 164.3 271.2 168.2C289.3 172 307.7 176 325.8 173.8C344 171.7 362 163.3 371 159.2L380 155L380 201L371 201C362 201 344 201 325.8 201C307.7 201 289.3 201 271.2 201C253 201 235 201 217 201C199 201 181 201 163 201C145 201 127 201 108.8 201C90.7 201 72.3 201 54.2 201C36 201 18 201 9 201L0 201Z"
        fill="#3d82ea"></path>
</svg>