<svg width="360" height="160" preserveAspectRatio="none" viewBox="0 0 360 160" fill="none"
    xmlns="http://www.w3.org/2000/svg">
    <g clip-path="url(#clip0_41_15)">
        <path d="M360 0H0V160H360V0Z" fill="#DBDBDB" />
        <path
            d="M0 116.8L7.57895 108.48C15.1579 100.32 30.3158 83.68 45.2842 79.52C60.3474 75.2 75.1263 83.2 90.1895 73.12C105.158 62.88 120.316 34.72 135.284 29.6C150.347 24.48 165.126 42.72 180.189 53.12C195.158 63.52 210.316 66.08 225.284 66.72C240.347 67.2 255.126 65.6 270.189 65.12C285.158 64.48 300.316 65.12 315.284 66.4C330.347 67.68 345.126 69.92 352.611 70.88L360 72V161.6H352.611C345.126 161.6 330.347 161.6 315.284 161.6C300.316 161.6 285.158 161.6 270.189 161.6C255.126 161.6 240.347 161.6 225.284 161.6C210.316 161.6 195.158 161.6 180.189 161.6C165.126 161.6 150.347 161.6 135.284 161.6C120.316 161.6 105.158 161.6 90.1895 161.6C75.1263 161.6 60.3474 161.6 45.2842 161.6C30.3158 161.6 15.1579 161.6 7.57895 161.6H0V116.8Z"
            fill="#d1d1d1" />
        <path
            d="M0 60.8L7.57895 65.28C15.1579 69.92 30.3158 78.88 45.2842 87.68C60.3474 96.48 75.1263 105.12 90.1895 98.4C105.158 91.68 120.316 69.92 135.284 56.48C150.347 43.2 165.126 38.4 180.189 44.32C195.158 50.08 210.316 66.72 225.284 78.88C240.347 91.2 255.126 99.2 270.189 100C285.158 100.8 300.316 94.4 315.284 86.08C330.347 77.92 345.126 67.68 352.611 62.72L360 57.6V161.6H352.611C345.126 161.6 330.347 161.6 315.284 161.6C300.316 161.6 285.158 161.6 270.189 161.6C255.126 161.6 240.347 161.6 225.284 161.6C210.316 161.6 195.158 161.6 180.189 161.6C165.126 161.6 150.347 161.6 135.284 161.6C120.316 161.6 105.158 161.6 90.1895 161.6C75.1263 161.6 60.3474 161.6 45.2842 161.6C30.3158 161.6 15.1579 161.6 7.57895 161.6H0V60.8Z"
            fill="#C4C4C4" />
        <path
            d="M0 136L7.57895 134.08C15.1579 132.32 30.3158 128.48 45.2842 117.6C60.3474 106.72 75.1263 88.48 90.1895 89.92C105.158 91.2 120.316 112 135.284 116C150.347 120 165.126 107.2 180.189 95.52C195.158 83.68 210.316 73.12 225.284 75.52C240.347 77.92 255.126 93.28 270.189 103.52C285.158 113.6 300.316 118.4 315.284 124.48C330.347 130.72 345.126 138.08 352.611 141.92L360 145.6V161.6H352.611C345.126 161.6 330.347 161.6 315.284 161.6C300.316 161.6 285.158 161.6 270.189 161.6C255.126 161.6 240.347 161.6 225.284 161.6C210.316 161.6 195.158 161.6 180.189 161.6C165.126 161.6 150.347 161.6 135.284 161.6C120.316 161.6 105.158 161.6 90.1895 161.6C75.1263 161.6 60.3474 161.6 45.2842 161.6C30.3158 161.6 15.1579 161.6 7.57895 161.6H0V136Z"
            fill="#B2B2B2" />
        <path
            d="M0 145.6L7.57895 143.68C15.1579 141.92 30.3158 138.08 45.2842 135.2C60.3474 132.32 75.1263 130.08 90.1895 124.32C105.158 118.4 120.316 108.8 135.284 109.92C150.347 110.88 165.126 122.72 180.189 127.52C195.158 132.32 210.316 130.08 225.284 127.52C240.347 124.8 255.126 121.6 270.189 126.4C285.158 131.2 300.316 144 315.284 145.28C330.347 146.72 345.126 136.48 352.611 131.52L360 126.4V161.6H352.611C345.126 161.6 330.347 161.6 315.284 161.6C300.316 161.6 285.158 161.6 270.189 161.6C255.126 161.6 240.347 161.6 225.284 161.6C210.316 161.6 195.158 161.6 180.189 161.6C165.126 161.6 150.347 161.6 135.284 161.6C120.316 161.6 105.158 161.6 90.1895 161.6C75.1263 161.6 60.3474 161.6 45.2842 161.6C30.3158 161.6 15.1579 161.6 7.57895 161.6H0V145.6Z"
            fill="#9C9C9C" />
    </g>
    <defs>
        <clipPath id="clip0_41_15">
            <rect width="360" height="160" fill="white" />
        </clipPath>
    </defs>
</svg>