<svg id="visual" viewBox="0 0 450 900" width="450" height="900" preserveAspectRatio="none" xmlns="http://www.w3.org/2000/svg"
    xmlns:xlink="http://www.w3.org/1999/xlink" version="1.1">
    <path
        d="M0 82L18.8 74.5C37.7 67 75.3 52 112.8 43C150.3 34 187.7 31 225.2 34C262.7 37 300.3 46 337.8 50.5C375.3 55 412.7 55 431.3 55L450 55L450 0L431.3 0C412.7 0 375.3 0 337.8 0C300.3 0 262.7 0 225.2 0C187.7 0 150.3 0 112.8 0C75.3 0 37.7 0 18.8 0L0 0Z"
        fill="#808080"></path>
    <path
        d="M0 109L18.8 101.5C37.7 94 75.3 79 112.8 73C150.3 67 187.7 70 225.2 79C262.7 88 300.3 103 337.8 103C375.3 103 412.7 88 431.3 80.5L450 73L450 53L431.3 53C412.7 53 375.3 53 337.8 48.5C300.3 44 262.7 35 225.2 32C187.7 29 150.3 32 112.8 41C75.3 50 37.7 65 18.8 72.5L0 80Z"
        fill="#919191"></path>
    <path
        d="M0 154L18.8 155.5C37.7 157 75.3 160 112.8 163C150.3 166 187.7 169 225.2 169C262.7 169 300.3 166 337.8 158.5C375.3 151 412.7 139 431.3 133L450 127L450 71L431.3 78.5C412.7 86 375.3 101 337.8 101C300.3 101 262.7 86 225.2 77C187.7 68 150.3 65 112.8 71C75.3 77 37.7 92 18.8 99.5L0 107Z"
        fill="#a2a2a2"></path>
    <path
        d="M0 208L18.8 206.5C37.7 205 75.3 202 112.8 203.5C150.3 205 187.7 211 225.2 209.5C262.7 208 300.3 199 337.8 200.5C375.3 202 412.7 214 431.3 220L450 226L450 125L431.3 131C412.7 137 375.3 149 337.8 156.5C300.3 164 262.7 167 225.2 167C187.7 167 150.3 164 112.8 161C75.3 158 37.7 155 18.8 153.5L0 152Z"
        fill="#b3b3b3"></path>
    <path
        d="M0 460L18.8 472C37.7 484 75.3 508 112.8 497.5C150.3 487 187.7 442 225.2 421C262.7 400 300.3 403 337.8 421C375.3 439 412.7 472 431.3 488.5L450 505L450 224L431.3 218C412.7 212 375.3 200 337.8 198.5C300.3 197 262.7 206 225.2 207.5C187.7 209 150.3 203 112.8 201.5C75.3 200 37.7 203 18.8 204.5L0 206Z"
        fill="#c5c5c5"></path>
    <path
        d="M0 505L18.8 518.5C37.7 532 75.3 559 112.8 547C150.3 535 187.7 484 225.2 461.5C262.7 439 300.3 445 337.8 461.5C375.3 478 412.7 505 431.3 518.5L450 532L450 503L431.3 486.5C412.7 470 375.3 437 337.8 419C300.3 401 262.7 398 225.2 419C187.7 440 150.3 485 112.8 495.5C75.3 506 37.7 482 18.8 470L0 458Z"
        fill="#c5c5c5"></path>
    <path
        d="M0 577L18.8 581.5C37.7 586 75.3 595 112.8 578.5C150.3 562 187.7 520 225.2 500.5C262.7 481 300.3 484 337.8 497.5C375.3 511 412.7 535 431.3 547L450 559L450 530L431.3 516.5C412.7 503 375.3 476 337.8 459.5C300.3 443 262.7 437 225.2 459.5C187.7 482 150.3 533 112.8 545C75.3 557 37.7 530 18.8 516.5L0 503Z"
        fill="#c5c5c5"></path>
    <path
        d="M0 748L18.8 746.5C37.7 745 75.3 742 112.8 725.5C150.3 709 187.7 679 225.2 662.5C262.7 646 300.3 643 337.8 655C375.3 667 412.7 694 431.3 707.5L450 721L450 557L431.3 545C412.7 533 375.3 509 337.8 495.5C300.3 482 262.7 479 225.2 498.5C187.7 518 150.3 560 112.8 576.5C75.3 593 37.7 584 18.8 579.5L0 575Z"
        fill="#c5c5c5"></path>
    <path
        d="M0 838L18.8 830.5C37.7 823 75.3 808 112.8 796C150.3 784 187.7 775 225.2 779.5C262.7 784 300.3 802 337.8 814C375.3 826 412.7 832 431.3 835L450 838L450 719L431.3 705.5C412.7 692 375.3 665 337.8 653C300.3 641 262.7 644 225.2 660.5C187.7 677 150.3 707 112.8 723.5C75.3 740 37.7 743 18.8 744.5L0 746Z"
        fill="#b3b3b3"></path>
    <path
        d="M0 874L18.8 871C37.7 868 75.3 862 112.8 854.5C150.3 847 187.7 838 225.2 841C262.7 844 300.3 859 337.8 865C375.3 871 412.7 868 431.3 866.5L450 865L450 836L431.3 833C412.7 830 375.3 824 337.8 812C300.3 800 262.7 782 225.2 777.5C187.7 773 150.3 782 112.8 794C75.3 806 37.7 821 18.8 828.5L0 836Z"
        fill="#a2a2a2"></path>
    <path
        d="M0 901L18.8 901C37.7 901 75.3 901 112.8 901C150.3 901 187.7 901 225.2 901C262.7 901 300.3 901 337.8 901C375.3 901 412.7 901 431.3 901L450 901L450 863L431.3 864.5C412.7 866 375.3 869 337.8 863C300.3 857 262.7 842 225.2 839C187.7 836 150.3 845 112.8 852.5C75.3 860 37.7 866 18.8 869L0 872Z"
        fill="#919191"></path>
</svg>
