<svg id="visual" viewBox="0 0 450 900" width="450" height="900" preserveAspectRatio="none"
    xmlns="http://www.w3.org/2000/svg" xmlns:xlink="http://www.w3.org/1999/xlink" version="1.1">
    <path
        d="M0 136L37.5 163C75 190 150 244 225 256C300 268 375 238 412.5 223L450 208L450 0L412.5 0C375 0 300 0 225 0C150 0 75 0 37.5 0L0 0Z"
        fill="#c5c5c5"></path>
    <path
        d="M0 226L37.5 256C75 286 150 346 225 362.5C300 379 375 352 412.5 338.5L450 325L450 206L412.5 221C375 236 300 266 225 254C150 242 75 188 37.5 161L0 134Z"
        fill="#cbcbcb"></path>
    <path
        d="M0 253L37.5 292C75 331 150 409 225 445C300 481 375 475 412.5 472L450 469L450 323L412.5 336.5C375 350 300 377 225 360.5C150 344 75 284 37.5 254L0 224Z"
        fill="#d0d0d0"></path>
    <path
        d="M0 550L37.5 577C75 604 150 658 225 667C300 676 375 640 412.5 622L450 604L450 467L412.5 470C375 473 300 479 225 443C150 407 75 329 37.5 290L0 251Z"
        fill="#d6d6d6"></path>
    <path
        d="M0 874L37.5 854.5C75 835 150 796 225 779.5C300 763 375 769 412.5 772L450 775L450 602L412.5 620C375 638 300 674 225 665C150 656 75 602 37.5 575L0 548Z"
        fill="#dbdbdb"></path>
    <path
        d="M0 901L37.5 901C75 901 150 901 225 901C300 901 375 901 412.5 901L450 901L450 773L412.5 770C375 767 300 761 225 777.5C150 794 75 833 37.5 852.5L0 872Z"
        fill="#e1e1e1"></path>
</svg>