<svg id="visual" viewBox="0 0 450 900" width="450" height="900" preserveAspectRatio="none"
    xmlns="http://www.w3.org/2000/svg" xmlns:xlink="http://www.w3.org/1999/xlink" version="1.1">
    <path
        d="M0 127L18.8 128.5C37.7 130 75.3 133 112.8 131.5C150.3 130 187.7 124 225.2 115C262.7 106 300.3 94 337.8 88C375.3 82 412.7 82 431.3 82L450 82L450 0L431.3 0C412.7 0 375.3 0 337.8 0C300.3 0 262.7 0 225.2 0C187.7 0 150.3 0 112.8 0C75.3 0 37.7 0 18.8 0L0 0Z"
        fill="#C6C6C6"></path>
    <path
        d="M0 334L18.8 340C37.7 346 75.3 358 112.8 355C150.3 352 187.7 334 225.2 320.5C262.7 307 300.3 298 337.8 302.5C375.3 307 412.7 325 431.3 334L450 343L450 80L431.3 80C412.7 80 375.3 80 337.8 86C300.3 92 262.7 104 225.2 113C187.7 122 150.3 128 112.8 129.5C75.3 131 37.7 128 18.8 126.5L0 125Z"
        fill="#C6C6C6"></path>
    <path
        d="M0 613L18.8 620.5C37.7 628 75.3 643 112.8 641.5C150.3 640 187.7 622 225.2 605.5C262.7 589 300.3 574 337.8 577C375.3 580 412.7 601 431.3 611.5L450 622L450 341L431.3 332C412.7 323 375.3 305 337.8 300.5C300.3 296 262.7 305 225.2 318.5C187.7 332 150.3 350 112.8 353C75.3 356 37.7 344 18.8 338L0 332Z"
        fill="#c5c5c5"></path>
    <path
        d="M0 766L18.8 761.5C37.7 757 75.3 748 112.8 745C150.3 742 187.7 745 225.2 740.5C262.7 736 300.3 724 337.8 724C375.3 724 412.7 736 431.3 742L450 748L450 620L431.3 609.5C412.7 599 375.3 578 337.8 575C300.3 572 262.7 587 225.2 603.5C187.7 620 150.3 638 112.8 639.5C75.3 641 37.7 626 18.8 618.5L0 611Z"
        fill="#cecece"></path>
    <path
        d="M0 901L18.8 901C37.7 901 75.3 901 112.8 901C150.3 901 187.7 901 225.2 901C262.7 901 300.3 901 337.8 901C375.3 901 412.7 901 431.3 901L450 901L450 746L431.3 740C412.7 734 375.3 722 337.8 722C300.3 722 262.7 734 225.2 738.5C187.7 743 150.3 740 112.8 743C75.3 746 37.7 755 18.8 759.5L0 764Z"
        fill="#d7d7d7"></path>
</svg>