<svg width="360" height="800" preserveAspectRatio="none" viewBox="0 0 360 800" fill="none"
    xmlns="http://www.w3.org/2000/svg">
    <g clip-path="url(#clip0_28_4)">
        <path
            d="M0 120.889L30 144.889C60 168.889 120 216.889 180 227.556C240 238.222 300 211.556 330 198.222L360 184.889V0H330C300 0 240 0 180 0C120 0 60 0 30 0H0V120.889Z"
            fill="#f8f8f8" />
        <path
            d="M0 224.889L30 259.556C60 294.222 120 363.556 180 395.556C240 427.556 300 422.222 330 419.556L360 416.889V287.111L330 299.111C300 311.111 240 335.111 180 320.444C120 305.778 60 252.444 30 225.778L0 199.111V224.889Z"
            fill="#f9f9f9" />
        <path
            d="M0 488.889L30 512.889C60 536.889 120 584.889 180 592.889C240 600.889 300 568.889 330 552.889L360 536.889V415.111L330 417.778C300 420.444 240 425.778 180 393.778C120 361.778 60 292.444 30 257.778L0 223.111V488.889Z"
            fill="#f2f2f2" />
        <path
            d="M0 776.889L30 759.556C60 742.222 120 707.556 180 692.889C240 678.222 300 683.556 330 686.222L360 688.889V535.111L330 551.111C300 567.111 240 599.111 180 591.111C120 583.111 60 535.111 30 511.111L0 487.111V776.889Z"
            fill="#f9f9f9" />
        <path
            d="M0 800.889H30C60 800.889 120 800.889 180 800.889C240 800.889 300 800.889 330 800.889H360V687.111L330 684.444C300 681.778 240 676.444 180 691.111C120 705.778 60 740.444 30 757.778L0 775.111V800.889Z"
            fill="#f1f1f1" />
        <path
            d="M0 200.889L30 227.556C60 254.222 120 307.556 180 322.222C240 336.889 300 312.889 330 300.889L360 288.889V183.111L330 196.444C300 209.778 240 236.444 180 225.778C120 215.111 60 167.111 30 143.111L0 119.111V200.889Z"
            fill="#f8f8f8" />
    </g>
    <defs>
        <clipPath id="clip0_28_4">
            <rect width="360" height="800" fill="white" />
        </clipPath>
    </defs>
</svg>